<svg xmlns="http://www.w3.org/2000/svg" xmlns:xlink="http://www.w3.org/1999/xlink" version="1.1" width="256" height="256" viewBox="0 0 256 256" xml:space="preserve">
<g style="stroke: none; stroke-width: 0; stroke-dasharray: none; stroke-linecap: butt; stroke-linejoin: miter; stroke-miterlimit: 10; fill: none; fill-rule: nonzero; opacity: 1;" transform="translate(1.4065934065934016 1.4065934065934016) scale(2.81 2.81)">
	<path d="M 7.236 90 c -2.561 0 -5.029 -1.412 -6.259 -3.856 c -1.737 -3.453 -0.346 -7.661 3.108 -9.398 L 67.193 45 L 4.085 13.255 C 0.632 11.518 -0.76 7.31 0.977 3.856 c 1.737 -3.454 5.945 -4.846 9.399 -3.108 l 75.539 37.998 c 2.363 1.189 3.854 3.608 3.854 6.253 s -1.491 5.064 -3.854 6.253 L 10.376 89.251 C 9.367 89.759 8.294 90 7.236 90 z" style="stroke: none; stroke-width: 1; stroke-dasharray: none; stroke-linecap: butt; stroke-linejoin: miter; stroke-miterlimit: 10; fill: rgb(0,0,0); fill-rule: nonzero; opacity: 1;" transform=" matrix(1 0 0 1 0 0) " stroke-linecap="round"/>
</g>
</svg>