<svg xmlns="http://www.w3.org/2000/svg" xmlns:xlink="http://www.w3.org/1999/xlink" version="1.1" width="256" height="256" viewBox="0 0 256 256" xml:space="preserve">
<g style="stroke: none; stroke-width: 0; stroke-dasharray: none; stroke-linecap: butt; stroke-linejoin: miter; stroke-miterlimit: 10; fill: none; fill-rule: nonzero; opacity: 1;" transform="translate(1.4065934065934016 1.4065934065934016) scale(2.81 2.81)">
	<path d="M 35.082 54.907 C 20.43 40.255 18.585 17.647 29.544 0.989 c -5.528 2.229 -10.709 5.582 -15.19 10.063 c -17.834 17.834 -17.834 46.749 0 64.583 s 46.749 17.834 64.583 0 c 4.481 -4.481 7.834 -9.662 10.063 -15.19 C 72.342 71.404 49.734 69.559 35.082 54.907 z" style="stroke: none; stroke-width: 1; stroke-dasharray: none; stroke-linecap: butt; stroke-linejoin: miter; stroke-miterlimit: 10; fill: rgb(174,215,237); fill-rule: nonzero; opacity: 1;" transform=" matrix(1 0 0 1 0 0) " stroke-linecap="round"/>
	<path d="M 46.645 89.988 c -11.95 0 -23.9 -4.549 -32.998 -13.646 c -18.195 -18.196 -18.195 -47.802 0 -65.997 C 18.122 5.87 23.344 2.411 29.17 0.062 c 0.407 -0.166 0.871 -0.045 1.148 0.294 c 0.277 0.338 0.302 0.818 0.062 1.183 c -10.865 16.514 -8.59 38.661 5.41 52.66 l 0 0 c 14 13.999 36.147 16.274 52.661 5.41 c 0.368 -0.24 0.846 -0.215 1.184 0.062 c 0.338 0.276 0.457 0.742 0.294 1.148 c -2.349 5.825 -5.809 11.048 -10.284 15.523 C 70.546 85.439 58.596 89.988 46.645 89.988 z M 27.036 3.199 c -4.426 2.159 -8.443 5.03 -11.975 8.561 c -17.415 17.415 -17.415 45.752 0 63.169 c 17.416 17.415 45.752 17.413 63.169 0 c 3.531 -3.532 6.402 -7.55 8.561 -11.976 c -16.945 9.429 -38.514 6.563 -52.415 -7.339 l 0 0 l 0 0 C 20.474 41.713 17.606 20.145 27.036 3.199 z" style="stroke: none; stroke-width: 1; stroke-dasharray: none; stroke-linecap: butt; stroke-linejoin: miter; stroke-miterlimit: 10; fill: rgb(92,134,156); fill-rule: nonzero; opacity: 1;" transform=" matrix(1 0 0 1 0 0) " stroke-linecap="round"/>
</g>
</svg>