<svg xmlns="http://www.w3.org/2000/svg" xmlns:xlink="http://www.w3.org/1999/xlink" version="1.1" width="256" height="256" viewBox="0 0 256 256" xml:space="preserve">
<g style="stroke: none; stroke-width: 0; stroke-dasharray: none; stroke-linecap: butt; stroke-linejoin: miter; stroke-miterlimit: 10; fill: none; fill-rule: nonzero; opacity: 1;" transform="translate(1.4065934065934016 1.4065934065934016) scale(2.81 2.81)">
	<path d="M 72.784 55.588 l 6.77 0 C 85.323 55.587 90 50.911 90 45.142 v 0 c 0 -3.905 -2.146 -7.303 -5.32 -9.096 c 0.062 -0.584 0.097 -1.176 0.097 -1.776 c 0 -1.15 -0.117 -2.273 -0.338 -3.357 c -1.553 -7.59 -8.269 -13.3 -16.319 -13.3 c -6.516 0 -12.143 3.751 -14.88 9.203 c -2.596 -2.536 -6.141 -4.104 -10.057 -4.104 c -5.579 0 -10.409 3.175 -12.795 7.816 C 37.678 48.646 51.371 57.625 72.784 55.588 z" style="stroke: none; stroke-width: 1; stroke-dasharray: none; stroke-linecap: butt; stroke-linejoin: miter; stroke-miterlimit: 10; fill: rgb(22,135,211); fill-rule: nonzero; opacity: 1;" transform=" matrix(1 0 0 1 0 0) " stroke-linecap="round"/>
	<path d="M 68.911 51.001 c -0.307 -8.686 -7.427 -15.637 -16.187 -15.637 c -4.409 0 -8.402 1.766 -11.326 4.621 c -3.082 -6.14 -9.419 -10.364 -16.758 -10.364 c -10.36 0 -18.758 8.398 -18.758 18.758 c 0 0.676 0.04 1.343 0.109 2 C 2.417 52.399 0 56.226 0 60.624 v 0 c 0 6.497 5.267 11.764 11.764 11.764 h 50.393 c 6.497 0 11.764 -5.267 11.764 -11.764 v 0 C 73.92 56.643 71.937 53.13 68.911 51.001 z" style="stroke: none; stroke-width: 1; stroke-dasharray: none; stroke-linecap: butt; stroke-linejoin: miter; stroke-miterlimit: 10; fill: rgb(21,175,229); fill-rule: nonzero; opacity: 1;" transform=" matrix(1 0 0 1 0 0) " stroke-linecap="round"/>
</g>
</svg>