<svg xmlns="http://www.w3.org/2000/svg" xmlns:xlink="http://www.w3.org/1999/xlink" version="1.1" width="256" height="256" viewBox="0 0 256 256" xml:space="preserve">
<g style="stroke: none; stroke-width: 0; stroke-dasharray: none; stroke-linecap: butt; stroke-linejoin: miter; stroke-miterlimit: 10; fill: none; fill-rule: nonzero; opacity: 1;" transform="translate(1.4065934065934016 1.4065934065934016) scale(2.81 2.81)">
	<path d="M 46.438 17.62 c 0.26 0.147 0.509 0.322 0.723 0.554 C 46.947 17.942 46.699 17.767 46.438 17.62 z" style="stroke: none; stroke-width: 1; stroke-dasharray: none; stroke-linecap: butt; stroke-linejoin: miter; stroke-miterlimit: 10; fill: rgb(0,71,244); fill-rule: nonzero; opacity: 1;" transform=" matrix(1 0 0 1 0 0) " stroke-linecap="round"/>
	<path d="M 43.97 34.401 c 0.277 -0.301 0.654 -0.451 1.03 -0.451 c 1.977 -5.399 1.859 -10.983 0 -16.722 c -0.79 0 -1.58 0.316 -2.162 0.947 L 0.798 63.784 c -1.129 1.225 -1.051 3.132 0.174 4.261 l 4.263 3.93 c 1.225 1.129 3.132 1.051 4.261 -0.173 L 43.97 34.401 z" style="stroke: none; stroke-width: 1; stroke-dasharray: none; stroke-linecap: butt; stroke-linejoin: miter; stroke-miterlimit: 10; fill: rgb(216,74,74); fill-rule: nonzero; opacity: 1;" transform=" matrix(1 0 0 1 0 0) " stroke-linecap="round"/>
	<path d="M 46.03 34.401 c -0.277 -0.301 -0.654 -0.451 -1.03 -0.451 V 17.227 c 0.79 0 1.58 0.316 2.162 0.947 l 42.04 45.609 c 1.129 1.225 1.051 3.132 -0.174 4.261 l -4.263 3.93 c -1.225 1.129 -3.132 1.051 -4.261 -0.173 L 46.03 34.401 z" style="stroke: none; stroke-width: 1; stroke-dasharray: none; stroke-linecap: butt; stroke-linejoin: miter; stroke-miterlimit: 10; fill: rgb(168,59,59); fill-rule: nonzero; opacity: 1;" transform=" matrix(1 0 0 1 0 0) " stroke-linecap="round"/>
	<path d="M 46.438 47.62 c 0.26 0.147 0.509 0.322 0.723 0.554 C 46.947 47.942 46.699 47.767 46.438 47.62 z" style="stroke: none; stroke-width: 1; stroke-dasharray: none; stroke-linecap: butt; stroke-linejoin: miter; stroke-miterlimit: 10; fill: rgb(0,71,244); fill-rule: nonzero; opacity: 1;" transform=" matrix(1 0 0 1 0 0) " stroke-linecap="round"/>
</g>
</svg>